<?xml version="1.0" encoding="UTF-8"?>
<svg id="_レイヤー_2" data-name="レイヤー 2" xmlns="http://www.w3.org/2000/svg" viewBox="0 0 288.89 47.542">
  <defs>
    <style>
      .cls-1 {
        fill: #1a4a51;
      }

      .cls-1, .cls-2, .cls-3, .cls-4 {
        stroke-width: 0px;
      }

      .cls-2 {
        fill: #1b59a5;
      }

      .cls-3 {
        fill: #000;
      }

      .cls-4 {
        fill: #f1d37d;
      }
    </style>
  </defs>
  <g id="Icons">
    <g>
      <path class="cls-3" d="M101.489,23.419c0,2.417-.403,4.637-1.208,6.658-.806,2.021-1.938,3.762-3.397,5.221-1.46,1.46-3.216,2.592-5.268,3.398-2.051.805-4.324,1.208-6.817,1.208h-12.586V6.933h12.586c2.493,0,4.766.408,6.817,1.221,2.052.813,3.808,1.945,5.268,3.397,1.459,1.452,2.591,3.188,3.397,5.21.805,2.021,1.208,4.24,1.208,6.657ZM95.219,23.419c0-1.809-.243-3.431-.729-4.868-.487-1.436-1.178-2.652-2.075-3.647s-1.988-1.76-3.272-2.292c-1.285-.531-2.733-.798-4.344-.798h-6.407v23.211h6.407c1.611,0,3.059-.265,4.344-.798,1.284-.532,2.375-1.296,3.272-2.291s1.588-2.212,2.075-3.648.729-3.059.729-4.868Z"/>
      <path class="cls-3" d="M124.313,39.904h-2.531c-.532,0-.95-.08-1.254-.24-.304-.159-.532-.482-.684-.968l-.501-1.665c-.593.532-1.175,1-1.744,1.403-.57.403-1.159.741-1.768,1.014-.607.274-1.254.479-1.937.616-.684.137-1.445.205-2.281.205-.988,0-1.9-.134-2.736-.4-.837-.267-1.554-.668-2.155-1.201s-1.069-1.197-1.402-1.99c-.334-.794-.502-1.716-.502-2.769,0-.884.232-1.757.695-2.619.464-.862,1.235-1.64,2.315-2.333,1.079-.694,2.516-1.27,4.31-1.728,1.793-.457,4.021-.686,6.681-.686v-1.379c0-1.578-.331-2.746-.992-3.503-.661-.759-1.623-1.138-2.885-1.138-.912,0-1.672.106-2.28.32-.608.213-1.137.452-1.584.718-.449.266-.863.506-1.243.719s-.798.319-1.254.319c-.38,0-.707-.098-.981-.296-.273-.197-.494-.441-.661-.729l-1.026-1.801c2.69-2.463,5.936-3.694,9.735-3.694,1.369,0,2.589.224,3.66.673s1.979,1.072,2.724,1.87c.745.798,1.311,1.752,1.699,2.861.387,1.111.581,2.326.581,3.648v14.775ZM113.368,36.393c.577,0,1.11-.053,1.596-.158.487-.104.946-.261,1.38-.471.433-.21.851-.467,1.254-.774s.809-.67,1.22-1.089v-3.916c-1.642,0-3.014.103-4.116.31-1.103.207-1.988.471-2.657.793s-1.144.697-1.424,1.125c-.282.429-.422.895-.422,1.4,0,.995.293,1.707.878,2.136.585.429,1.348.644,2.291.644Z"/>
      <path class="cls-3" d="M136.694,9.693c0,.487-.099.943-.296,1.368-.198.426-.46.799-.787,1.117-.328.32-.711.574-1.151.764-.442.19-.913.285-1.414.285-.487,0-.947-.095-1.38-.285s-.809-.445-1.129-.764-.573-.691-.763-1.117c-.19-.425-.285-.881-.285-1.368,0-.501.095-.972.285-1.414.19-.441.445-.821.763-1.14.32-.319.696-.573,1.129-.764.433-.189.893-.285,1.38-.285.501,0,.972.096,1.414.285.441.191.824.446,1.151.764.327.319.589.699.787,1.14.197.442.296.913.296,1.414ZM135.85,16.51v23.394h-5.632v-23.394h5.632Z"/>
      <path class="cls-3" d="M148.208,6.022v33.882h-5.632V6.022h5.632Z"/>
      <path class="cls-3" d="M162.869,46.334c-.167.395-.384.695-.649.9-.266.206-.673.308-1.22.308h-4.195l4.378-9.371-9.462-21.662h4.925c.456,0,.805.107,1.049.32.243.213.425.455.547.729l4.993,12.13c.168.396.312.806.434,1.231.121.426.228.851.319,1.277.122-.441.254-.867.399-1.277s.3-.828.468-1.254l4.697-12.108c.122-.304.323-.555.605-.753.281-.197.597-.296.946-.296h4.515l-12.746,29.824Z"/>
      <path class="cls-3" d="M208.494,23.419c0,2.417-.403,4.637-1.208,6.658-.806,2.021-1.938,3.762-3.397,5.221-1.46,1.46-3.216,2.592-5.268,3.398-2.051.805-4.324,1.208-6.817,1.208h-12.586V6.933h12.586c2.493,0,4.766.408,6.817,1.221,2.052.813,3.808,1.945,5.268,3.397,1.459,1.452,2.591,3.188,3.397,5.21.805,2.021,1.208,4.24,1.208,6.657ZM202.224,23.419c0-1.809-.243-3.431-.729-4.868-.487-1.436-1.178-2.652-2.075-3.647s-1.988-1.76-3.272-2.292c-1.285-.531-2.733-.798-4.344-.798h-6.407v23.211h6.407c1.611,0,3.059-.265,4.344-.798,1.284-.532,2.375-1.296,3.272-2.291s1.588-2.212,2.075-3.648.729-3.059.729-4.868Z"/>
      <path class="cls-3" d="M231.318,39.904h-2.531c-.532,0-.95-.08-1.254-.24-.304-.159-.532-.482-.684-.968l-.501-1.665c-.593.532-1.175,1-1.744,1.403-.57.403-1.159.741-1.768,1.014-.607.274-1.254.479-1.937.616-.684.137-1.445.205-2.281.205-.988,0-1.9-.134-2.736-.4-.837-.267-1.554-.668-2.155-1.201s-1.069-1.197-1.402-1.99c-.334-.794-.502-1.716-.502-2.769,0-.884.232-1.757.695-2.619.464-.862,1.235-1.64,2.315-2.333,1.079-.694,2.516-1.27,4.31-1.728,1.793-.457,4.021-.686,6.681-.686v-1.379c0-1.578-.331-2.746-.992-3.503-.661-.759-1.623-1.138-2.885-1.138-.912,0-1.672.106-2.28.32-.608.213-1.137.452-1.584.718-.449.266-.863.506-1.243.719s-.798.319-1.254.319c-.38,0-.707-.098-.981-.296-.273-.197-.494-.441-.661-.729l-1.026-1.801c2.69-2.463,5.936-3.694,9.735-3.694,1.369,0,2.589.224,3.66.673s1.979,1.072,2.724,1.87c.745.798,1.311,1.752,1.699,2.861.387,1.111.581,2.326.581,3.648v14.775ZM220.373,36.393c.577,0,1.11-.053,1.596-.158.487-.104.946-.261,1.38-.471.433-.21.851-.467,1.254-.774s.809-.67,1.22-1.089v-3.916c-1.642,0-3.014.103-4.116.31-1.103.207-1.988.471-2.657.793s-1.144.697-1.424,1.125c-.282.429-.422.895-.422,1.4,0,.995.293,1.707.878,2.136.585.429,1.348.644,2.291.644Z"/>
      <path class="cls-3" d="M243.699,9.693c0,.487-.099.943-.296,1.368-.198.426-.46.799-.787,1.117-.328.32-.711.574-1.151.764-.442.19-.913.285-1.414.285-.487,0-.947-.095-1.38-.285s-.809-.445-1.129-.764-.573-.691-.763-1.117c-.19-.425-.285-.881-.285-1.368,0-.501.095-.972.285-1.414.19-.441.445-.821.763-1.14.32-.319.696-.573,1.129-.764.433-.189.893-.285,1.38-.285.501,0,.972.096,1.414.285.441.191.824.446,1.151.764.327.319.589.699.787,1.14.197.442.296.913.296,1.414ZM242.855,16.51v23.394h-5.632v-23.394h5.632Z"/>
      <path class="cls-3" d="M249.216,39.904v-23.394h3.306c.577,0,.98.107,1.208.32s.38.577.456,1.094l.342,2.828c.836-1.444,1.816-2.584,2.941-3.42,1.125-.836,2.387-1.254,3.785-1.254,1.155,0,2.113.266,2.873.799l-.729,4.218c-.046.274-.145.467-.296.581-.152.114-.358.172-.616.172-.228,0-.539-.054-.934-.16-.396-.106-.92-.16-1.574-.16-1.171,0-2.174.324-3.01.969-.837.646-1.543,1.592-2.121,2.839v14.57h-5.632Z"/>
      <path class="cls-3" d="M276.144,46.334c-.167.395-.384.695-.649.9-.266.206-.673.308-1.22.308h-4.195l4.378-9.371-9.462-21.662h4.925c.456,0,.805.107,1.049.32.243.213.425.455.547.729l4.993,12.13c.168.396.312.806.434,1.231.121.426.228.851.319,1.277.122-.441.254-.867.399-1.277s.3-.828.468-1.254l4.697-12.108c.122-.304.323-.555.605-.753.281-.197.597-.296.946-.296h4.515l-12.746,29.824Z"/>
    </g>
    <g>
      <path class="cls-4" d="M27.687,45.926H5.535c-3.051,0-5.535-2.482-5.535-5.533V5.535C0,2.482,2.483,0,5.535,0h5.559c12.202,0,22.128,9.926,22.128,22.128v18.265c0,3.051-2.483,5.533-5.535,5.533M5.991,39.937h21.24v-17.809c0-8.898-7.239-16.137-16.137-16.137h-5.102v33.946"/>
      <path class="cls-2" d="M33.221,39.937v-17.809c0-8.898,7.239-16.137,16.137-16.137h5.101v33.946h-21.238M54.917,0h-5.559c-8.155,0-15.294,4.435-19.133,11.02,1.904,3.267,2.996,7.062,2.996,11.108v18.265c0,2.137-1.218,3.994-2.996,4.916.761.394,1.624.617,2.538.617h22.154c3.051,0,5.533-2.482,5.533-5.533V5.535c0-3.053-2.482-5.535-5.533-5.535"/>
      <path class="cls-1" d="M30.226,11.02c-1.904,3.267-2.995,7.062-2.995,11.108v18.265c0,2.137,1.217,3.994,2.995,4.916,1.778-.921,2.996-2.779,2.996-4.916v-18.265c0-4.046-1.092-7.842-2.996-11.108"/>
    </g>
  </g>
</svg>