<?xml version="1.0" encoding="UTF-8"?>
<svg id="_レイヤー_2" data-name=" レイヤー 2" xmlns="http://www.w3.org/2000/svg" version="1.1" viewBox="0 0 288.9 47.5">
  <defs>
    <style>
      .cls-1 {
        isolation: isolate;
      }

      .cls-1, .cls-2 {
        fill: #fff;
        stroke-width: 0px;
      }
    </style>
  </defs>
  <g id="Icons">
    <g>
      <path class="cls-2" d="M101.5,23.4c0,2.4-.4,4.6-1.2,6.7-.8,2-1.9,3.8-3.4,5.2s-3.2,2.6-5.3,3.4c-2.1.8-4.3,1.2-6.8,1.2h-12.6V6.9h12.6c2.5,0,4.8.4,6.8,1.2,2.1.8,3.8,1.9,5.3,3.4,1.5,1.5,2.6,3.2,3.4,5.2.8,2,1.2,4.2,1.2,6.7h0ZM95.2,23.4c0-1.8-.2-3.4-.7-4.9-.5-1.4-1.2-2.7-2.1-3.6s-2-1.8-3.3-2.3c-1.3-.5-2.7-.8-4.3-.8h-6.4v23.2h6.4c1.6,0,3.1-.3,4.3-.8,1.3-.5,2.4-1.3,3.3-2.3s1.6-2.2,2.1-3.6.7-3.1.7-4.9h0Z"/>
      <path class="cls-2" d="M124.3,39.9h-2.5c-.5,0-.9,0-1.3-.2-.3-.2-.5-.5-.7-1l-.5-1.7c-.6.5-1.2,1-1.7,1.4-.6.4-1.2.7-1.8,1-.6.3-1.3.5-1.9.6-.7.1-1.4.2-2.3.2s-1.9-.1-2.7-.4c-.8-.3-1.6-.7-2.2-1.2s-1.1-1.2-1.4-2c-.3-.8-.5-1.7-.5-2.8s.2-1.8.7-2.6c.5-.9,1.2-1.6,2.3-2.3,1.1-.7,2.5-1.3,4.3-1.7,1.8-.5,4-.7,6.7-.7v-1.4c0-1.6-.3-2.7-1-3.5-.7-.8-1.6-1.1-2.9-1.1s-1.7.1-2.3.3c-.6.2-1.1.5-1.6.7-.4.3-.9.5-1.2.7s-.8.3-1.3.3-.7,0-1-.3c-.3-.2-.5-.4-.7-.7l-1-1.8c2.7-2.5,5.9-3.7,9.7-3.7s2.6.2,3.7.7,2,1.1,2.7,1.9,1.3,1.8,1.7,2.9c.4,1.1.6,2.3.6,3.6v14.8h0ZM113.4,36.4c.6,0,1.1,0,1.6-.2.5-.1.9-.3,1.4-.5.4-.2.9-.5,1.3-.8s.8-.7,1.2-1.1v-3.9c-1.6,0-3,.1-4.1.3-1.1.2-2,.5-2.7.8s-1.1.7-1.4,1.1c-.3.4-.4.9-.4,1.4,0,1,.3,1.7.9,2.1s1.3.6,2.3.6Z"/>
      <path class="cls-2" d="M136.7,9.7c0,.5,0,.9-.3,1.4-.2.4-.5.8-.8,1.1-.3.3-.7.6-1.2.8-.4.2-.9.3-1.4.3s-.9,0-1.4-.3-.8-.4-1.1-.8-.6-.7-.8-1.1c-.2-.4-.3-.9-.3-1.4s0-1,.3-1.4c.2-.4.4-.8.8-1.1.3-.3.7-.6,1.1-.8.4-.2.9-.3,1.4-.3s1,0,1.4.3c.4.2.8.4,1.2.8.3.3.6.7.8,1.1.2.4.3.9.3,1.4ZM135.9,16.5v23.4h-5.6v-23.4h5.6Z"/>
      <path class="cls-2" d="M148.2,6v33.9h-5.6V6h5.6Z"/>
      <path class="cls-2" d="M162.9,46.3c-.2.4-.4.7-.6.9-.3.2-.7.3-1.2.3h-4.2l4.4-9.4-9.5-21.7h4.9c.5,0,.8.1,1,.3.2.2.4.5.5.7l5,12.1c.2.4.3.8.4,1.2.1.4.2.9.3,1.3.1-.4.3-.9.4-1.3s.3-.8.5-1.3l4.7-12.1c.1-.3.3-.6.6-.8.3-.2.6-.3.9-.3h4.5l-12.7,29.8h0Z"/>
      <path class="cls-2" d="M208.5,23.4c0,2.4-.4,4.6-1.2,6.7-.8,2-1.9,3.8-3.4,5.2-1.5,1.5-3.2,2.6-5.3,3.4-2.1.8-4.3,1.2-6.8,1.2h-12.6V6.9h12.6c2.5,0,4.8.4,6.8,1.2,2.1.8,3.8,1.9,5.3,3.4,1.5,1.5,2.6,3.2,3.4,5.2.8,2,1.2,4.2,1.2,6.7h0ZM202.2,23.4c0-1.8-.2-3.4-.7-4.9-.5-1.4-1.2-2.7-2.1-3.6s-2-1.8-3.3-2.3c-1.3-.5-2.7-.8-4.3-.8h-6.4v23.2h6.4c1.6,0,3.1-.3,4.3-.8,1.3-.5,2.4-1.3,3.3-2.3s1.6-2.2,2.1-3.6.7-3.1.7-4.9h0Z"/>
      <path class="cls-2" d="M231.3,39.9h-2.5c-.5,0-.9,0-1.3-.2-.3-.2-.5-.5-.7-1l-.5-1.7c-.6.5-1.2,1-1.7,1.4-.6.4-1.2.7-1.8,1-.6.3-1.3.5-1.9.6-.7.1-1.4.2-2.3.2s-1.9-.1-2.7-.4c-.8-.3-1.6-.7-2.2-1.2s-1.1-1.2-1.4-2c-.3-.8-.5-1.7-.5-2.8s.2-1.8.7-2.6c.5-.9,1.2-1.6,2.3-2.3,1.1-.7,2.5-1.3,4.3-1.7,1.8-.5,4-.7,6.7-.7v-1.4c0-1.6-.3-2.7-1-3.5-.7-.8-1.6-1.1-2.9-1.1s-1.7.1-2.3.3c-.6.2-1.1.5-1.6.7-.4.3-.9.5-1.2.7s-.8.3-1.3.3-.7,0-1-.3c-.3-.2-.5-.4-.7-.7l-1-1.8c2.7-2.5,5.9-3.7,9.7-3.7s2.6.2,3.7.7,2,1.1,2.7,1.9,1.3,1.8,1.7,2.9c.4,1.1.6,2.3.6,3.6v14.8h0ZM220.4,36.4c.6,0,1.1,0,1.6-.2.5-.1.9-.3,1.4-.5.4-.2.9-.5,1.3-.8s.8-.7,1.2-1.1v-3.9c-1.6,0-3,.1-4.1.3-1.1.2-2,.5-2.7.8s-1.1.7-1.4,1.1c-.3.4-.4.9-.4,1.4,0,1,.3,1.7.9,2.1s1.3.6,2.3.6h0Z"/>
      <path class="cls-2" d="M243.7,9.7c0,.5,0,.9-.3,1.4-.2.4-.5.8-.8,1.1-.3.3-.7.6-1.2.8-.4.2-.9.3-1.4.3s-.9,0-1.4-.3-.8-.4-1.1-.8-.6-.7-.8-1.1c-.2-.4-.3-.9-.3-1.4s0-1,.3-1.4c.2-.4.4-.8.8-1.1.3-.3.7-.6,1.1-.8.4-.2.9-.3,1.4-.3s1,0,1.4.3c.4.2.8.4,1.2.8.3.3.6.7.8,1.1.2.4.3.9.3,1.4ZM242.9,16.5v23.4h-5.6v-23.4h5.6Z"/>
      <path class="cls-2" d="M249.2,39.9v-23.4h3.3c.6,0,1,.1,1.2.3s.4.6.5,1.1l.3,2.8c.8-1.4,1.8-2.6,2.9-3.4s2.4-1.3,3.8-1.3,2.1.3,2.9.8l-.7,4.2c0,.3-.1.5-.3.6-.2.1-.4.2-.6.2s-.5,0-.9-.2c-.4-.1-.9-.2-1.6-.2-1.2,0-2.2.3-3,1-.8.6-1.5,1.6-2.1,2.8v14.6h-5.6,0Z"/>
      <path class="cls-2" d="M276.1,46.3c-.2.4-.4.7-.6.9-.3.2-.7.3-1.2.3h-4.2l4.4-9.4-9.5-21.7h4.9c.5,0,.8.1,1,.3.2.2.4.5.5.7l5,12.1c.2.4.3.8.4,1.2.1.4.2.9.3,1.3.1-.4.3-.9.4-1.3s.3-.8.5-1.3l4.7-12.1c.1-.3.3-.6.6-.8.3-.2.6-.3.9-.3h4.5l-12.7,29.8h0Z"/>
    </g>
    <g>
      <path class="cls-1" d="M27.7,45.9H5.5c-3.1,0-5.5-2.5-5.5-5.5V5.5C0,2.5,2.5,0,5.5,0h5.6c12.2,0,22.1,9.9,22.1,22.1v18.3c0,3.1-2.5,5.5-5.5,5.5M6,39.9h21.2v-17.8c0-8.9-7.2-16.1-16.1-16.1h-5.1v33.9"/>
      <path class="cls-1" d="M33.2,39.9v-17.8c0-8.9,7.2-16.1,16.1-16.1h5.1v33.9h-21.2M54.9,0h-5.6c-8.2,0-15.3,4.4-19.1,11,1.9,3.3,3,7.1,3,11.1v18.3c0,2.1-1.2,4-3,4.9.8.4,1.6.6,2.5.6h22.2c3.1,0,5.5-2.5,5.5-5.5V5.5c0-3.1-2.5-5.5-5.5-5.5"/>
      <path class="cls-2" d="M30.2,11c-1.9,3.3-3,7.1-3,11.1v18.3c0,2.1,1.2,4,3,4.9,1.8-.9,3-2.8,3-4.9v-18.3c0-4-1.1-7.8-3-11.1"/>
    </g>
  </g>
</svg>