<svg width="64" height="64" viewBox="0 0 64 64" fill="none" xmlns="http://www.w3.org/2000/svg">
<rect width="64" height="64" rx="32" fill="#F4F7FB"/>
<mask id="mask0_256_354" style="mask-type:alpha" maskUnits="userSpaceOnUse" x="4" y="4" width="56" height="56">
<rect x="4" y="4" width="56" height="56" fill="#D9D9D9"/>
</mask>
<g mask="url(#mask0_256_354)">
<path d="M15.6667 36.6666C14.3503 36.6666 13.2435 36.2178 12.3463 35.3203C11.4488 34.4231 11 33.3163 11 31.9999C11 30.6835 11.4488 29.5768 12.3463 28.6796C13.2435 27.782 14.3503 27.3333 15.6667 27.3333V21.7694C15.6667 20.7326 16.0357 19.8452 16.7738 19.1071C17.5119 18.369 18.3994 17.9999 19.4362 17.9999H27.3333C27.3333 16.6835 27.7821 15.5768 28.6797 14.6796C29.5768 13.782 30.6836 13.3333 32 13.3333C33.3164 13.3333 34.4232 13.782 35.3203 14.6796C36.2179 15.5768 36.6667 16.6835 36.6667 17.9999H44.5638C45.6006 17.9999 46.4881 18.369 47.2262 19.1071C47.9643 19.8452 48.3333 20.7326 48.3333 21.7694V27.3333C49.6497 27.3333 50.7565 27.782 51.6537 28.6796C52.5512 29.5768 53 30.6835 53 31.9999C53 33.3163 52.5512 34.4231 51.6537 35.3203C50.7565 36.2178 49.6497 36.6666 48.3333 36.6666V46.8971C48.3333 47.9339 47.9643 48.8213 47.2262 49.5594C46.4881 50.2975 45.6006 50.6666 44.5638 50.6666H19.4362C18.3994 50.6666 17.5119 50.2975 16.7738 49.5594C16.0357 48.8213 15.6667 47.9339 15.6667 46.8971V36.6666ZM24.9948 33.1666C25.6415 33.1666 26.1929 32.9403 26.6491 32.4876C27.1052 32.0349 27.3333 31.4852 27.3333 30.8385C27.3333 30.1918 27.107 29.6403 26.6543 29.1842C26.2017 28.728 25.652 28.4999 25.0052 28.4999C24.3585 28.4999 23.8071 28.7263 23.3509 29.1789C22.8948 29.6316 22.6667 30.1813 22.6667 30.828C22.6667 31.4747 22.893 32.0262 23.3457 32.4823C23.7983 32.9385 24.348 33.1666 24.9948 33.1666ZM38.9947 33.1666C39.6415 33.1666 40.1929 32.9403 40.6491 32.4876C41.1053 32.0349 41.3333 31.4852 41.3333 30.8385C41.3333 30.1918 41.107 29.6403 40.6543 29.1842C40.2017 28.728 39.652 28.4999 39.0053 28.4999C38.3585 28.4999 37.8071 28.7263 37.3509 29.1789C36.8947 29.6316 36.6667 30.1813 36.6667 30.828C36.6667 31.4747 36.893 32.0262 37.3457 32.4823C37.7983 32.9385 38.348 33.1666 38.9947 33.1666ZM23.8333 42.4999H40.1667V40.1666H23.8333V42.4999ZM19.4362 48.3333H44.5638C44.9827 48.3333 45.3268 48.1987 45.5963 47.9296C45.8654 47.6601 46 47.3159 46 46.8971V21.7694C46 21.3506 45.8654 21.0064 45.5963 20.7369C45.3268 20.4678 44.9827 20.3333 44.5638 20.3333H19.4362C19.0173 20.3333 18.6732 20.4678 18.4037 20.7369C18.1346 21.0064 18 21.3506 18 21.7694V46.8971C18 47.3159 18.1346 47.6601 18.4037 47.9296C18.6732 48.1987 19.0173 48.3333 19.4362 48.3333Z" fill="#26408D"/>
</g>
</svg>
