<svg width="64" height="64" viewBox="0 0 64 64" fill="none" xmlns="http://www.w3.org/2000/svg">
<rect width="64" height="64" rx="32" fill="#F4F7FB"/>
<mask id="mask0_256_400" style="mask-type:alpha" maskUnits="userSpaceOnUse" x="24" y="22" width="36" height="36">
<rect x="24.5283" y="22.4626" width="34.9716" height="34.9716" fill="#D9D9D9"/>
</mask>
<g mask="url(#mask0_256_400)">
<path d="M46.9772 38.2111C47.5076 38.2111 47.9573 38.0254 48.3262 37.6541C48.6951 37.283 48.8795 36.8324 48.8795 36.3022C48.8795 35.7721 48.694 35.3226 48.3229 34.9537C47.9518 34.5845 47.501 34.3999 46.9706 34.3999C46.4405 34.3999 45.9909 34.5856 45.622 34.9569C45.2531 35.328 45.0687 35.7786 45.0687 36.3088C45.0687 36.839 45.2542 37.2885 45.6253 37.6574C45.9964 38.0265 46.447 38.2111 46.9772 38.2111ZM37.0576 38.2111C37.5878 38.2111 38.0373 38.0254 38.4062 37.6541C38.7751 37.283 38.9596 36.8324 38.9596 36.3022C38.9596 35.7721 38.774 35.3226 38.403 34.9537C38.0319 34.5845 37.5812 34.3999 37.0511 34.3999C36.5207 34.3999 36.071 34.5856 35.7021 34.9569C35.3332 35.328 35.1488 35.7786 35.1488 36.3088C35.1488 36.839 35.3343 37.2885 35.7054 37.6574C36.0765 38.0265 36.5272 38.2111 37.0576 38.2111ZM42.0141 42.1341C40.4936 42.1341 39.1037 42.5596 37.8445 43.4106C36.5853 44.2616 35.6568 45.3866 35.0592 46.7857H36.987C37.5213 45.8871 38.2316 45.1768 39.1181 44.6546C40.0045 44.1325 40.9698 43.8714 42.0141 43.8714C43.0584 43.8714 44.0238 44.1325 44.9102 44.6546C45.7967 45.1768 46.507 45.8871 47.0413 46.7857H48.9691C48.3714 45.3866 47.443 44.2616 46.1838 43.4106C44.9246 42.5596 43.5347 42.1341 42.0141 42.1341ZM42.0167 53.7913C40.102 53.7913 38.3023 53.428 36.6176 52.7014C34.9329 51.9748 33.4675 50.9886 32.2214 49.743C30.9752 48.4974 29.9886 47.0326 29.2615 45.3486C28.5346 43.6646 28.1712 41.8654 28.1712 39.951C28.1712 38.0363 28.5345 36.2366 29.2612 34.5518C29.9878 32.8671 30.9739 31.4017 32.2195 30.1556C33.4652 28.9095 34.93 27.9229 36.6139 27.1958C38.2979 26.4689 40.0971 26.1055 42.0116 26.1055C43.9263 26.1055 45.726 26.4688 47.4107 27.1954C49.0954 27.922 50.5608 28.9082 51.8069 30.1538C53.053 31.3994 54.0396 32.8642 54.7668 34.5482C55.4936 36.2322 55.8571 38.0314 55.8571 39.9459C55.8571 41.8605 55.4938 43.6603 54.7671 45.345C54.0405 47.0297 53.0544 48.4951 51.8087 49.7412C50.5631 50.9873 49.0983 51.9739 47.4143 52.701C45.7304 53.4279 43.9311 53.7913 42.0167 53.7913ZM42.0141 51.6056C45.2684 51.6056 48.0249 50.4763 50.2835 48.2177C52.5421 45.9592 53.6713 43.2027 53.6713 39.9484C53.6713 36.6941 52.5421 33.9377 50.2835 31.6791C48.0249 29.4205 45.2684 28.2912 42.0141 28.2912C38.7598 28.2912 36.0034 29.4205 33.7448 31.6791C31.4862 33.9377 30.3569 36.6941 30.3569 39.9484C30.3569 43.2027 31.4862 45.9592 33.7448 48.2177C36.0034 50.4763 38.7598 51.6056 42.0141 51.6056Z" fill="#3E518C"/>
</g>
<mask id="mask1_256_400" style="mask-type:alpha" maskUnits="userSpaceOnUse" x="4" y="6" width="36" height="36">
<rect x="4.5" y="6.56567" width="34.9716" height="34.9716" fill="#D9D9D9"/>
</mask>
<g mask="url(#mask1_256_400)">
<path fill-rule="evenodd" clip-rule="evenodd" d="M28.2978 21.7571C27.9289 22.1285 27.4792 22.3141 26.9488 22.3141C26.4187 22.3141 25.968 22.1296 25.5969 21.7604C25.2259 21.3915 25.0403 20.942 25.0403 20.4118C25.0403 19.8817 25.2248 19.431 25.5937 19.06C25.9626 18.6886 26.4121 18.503 26.9423 18.503C27.4727 18.503 27.9234 18.6875 28.2945 19.0567C28.6656 19.4256 28.8511 19.8751 28.8511 20.4053C28.8511 20.9354 28.6667 21.3861 28.2978 21.7571ZM18.3778 21.7571C18.0089 22.1285 17.5594 22.3141 17.0293 22.3141C16.4989 22.3141 16.0481 22.1296 15.677 21.7604C15.3059 21.3915 15.1204 20.942 15.1204 20.4118C15.1204 19.8817 15.3048 19.431 15.6737 19.06C16.0426 18.6886 16.4923 18.503 17.0227 18.503C17.5529 18.503 18.0035 18.6875 18.3746 19.0567C18.7457 19.4256 18.9312 19.8751 18.9312 20.4053C18.9312 20.9354 18.7468 21.3861 18.3778 21.7571ZM26.1554 30.3409C24.8962 31.1918 23.5063 31.6173 21.9858 31.6173C20.4652 31.6173 19.0753 31.1918 17.8161 30.3409C16.5569 29.4899 15.6284 28.3648 15.0308 26.9657H28.9407C28.3431 28.3648 27.4146 29.4899 26.1554 30.3409ZM16.5892 36.8044C18.2739 37.531 20.0736 37.8944 21.9883 37.8944C23.0681 37.8944 24.1113 37.7787 25.1178 37.5475C25.2157 36.7414 25.3735 35.9532 25.5867 35.187C24.463 35.5348 23.2627 35.7086 21.9858 35.7086C18.7315 35.7086 15.975 34.5793 13.7164 32.3208C11.4578 30.0622 10.3285 27.3057 10.3285 24.0514C10.3285 20.7971 11.4578 18.0407 13.7164 15.7821C15.975 13.5235 18.7315 12.3942 21.9858 12.3942C25.2401 12.3942 27.9965 13.5235 30.2551 15.7821C32.5137 18.0407 33.643 20.7971 33.643 24.0514C33.643 24.4251 33.6281 24.7921 33.5983 25.1526C34.3111 24.7586 35.0561 24.4131 35.8285 24.1209C35.8286 24.0969 35.8287 24.0729 35.8287 24.0489C35.8287 22.1344 35.4653 20.3352 34.7384 18.6512C34.0113 16.9672 33.0246 15.5024 31.7785 14.2568C30.5324 13.0112 29.067 12.0251 27.3823 11.2984C25.6976 10.5718 23.8979 10.2085 21.9832 10.2085C20.0688 10.2085 18.2695 10.5719 16.5856 11.2988C14.9016 12.0259 13.4368 13.0125 12.1912 14.2586C10.9455 15.5048 9.9594 16.9702 9.23277 18.6549C8.50614 20.3396 8.14282 22.1393 8.14282 24.054C8.14282 25.9684 8.50626 27.7677 9.23314 29.4516C9.96025 31.1356 10.9469 32.6004 12.193 33.846C13.4391 35.0917 14.9045 36.0778 16.5892 36.8044Z" fill="#3E518C"/>
</g>
</svg>
