<svg width="64" height="64" viewBox="0 0 64 64" fill="none" xmlns="http://www.w3.org/2000/svg">
<rect width="64" height="64" rx="32" fill="#F4F7FB"/>
<mask id="mask0_256_362" style="mask-type:alpha" maskUnits="userSpaceOnUse" x="4" y="4" width="56" height="56">
<rect x="4" y="4" width="56" height="56" fill="#D9D9D9"/>
</mask>
<g mask="url(#mask0_256_362)">
<path d="M32 11L50.9144 22.3524C51.2393 22.5912 51.5015 22.8864 51.7011 23.2379C51.9004 23.5891 52 23.9706 52 24.3824V47.3712C52 48.4053 51.6574 49.2685 50.9722 49.9611C50.287 50.6537 49.433 51 48.41 51H15.59C14.567 51 13.713 50.6537 13.0278 49.9611C12.3426 49.2685 12 48.4053 12 47.3712V24.3824C12 23.9706 12.0996 23.5891 12.2989 23.2379C12.4985 22.8864 12.7607 22.5912 13.0856 22.3524L32 11ZM32 34.4903L49.3333 24.0454L32 13.6006L14.6667 24.0454L32 34.4903ZM32 37.0909L14.2222 26.3955V47.3712C14.2222 47.7744 14.3504 48.1058 14.6067 48.3652C14.8633 48.6243 15.1911 48.7538 15.59 48.7538H48.41C48.8089 48.7538 49.1367 48.6243 49.3933 48.3652C49.6496 48.1058 49.7778 47.7744 49.7778 47.3712V26.3955L32 37.0909Z" fill="#3E518C"/>
</g>
</svg>
