<svg width="64" height="64" viewBox="0 0 64 64" fill="none" xmlns="http://www.w3.org/2000/svg">
<rect width="64" height="64" rx="32" fill="#F4F7FB"/>
<mask id="mask0_259_78" style="mask-type:alpha" maskUnits="userSpaceOnUse" x="4" y="4" width="56" height="56">
<rect x="4" y="4" width="56" height="56" fill="#D9D9D9"/>
</mask>
<g mask="url(#mask0_259_78)">
<path d="M17.2081 17.5556H34.8725V15.59C34.8725 15.2478 34.731 14.9343 34.448 14.6494C34.165 14.3646 33.8537 14.2222 33.514 14.2222H18.5671C18.2274 14.2222 17.9161 14.3646 17.6331 14.6494C17.3497 14.9343 17.2081 15.2478 17.2081 15.59V17.5556ZM18.5671 52C17.5507 52 16.702 51.6574 16.0212 50.9722C15.3404 50.287 15 49.433 15 48.41V15.59C15 14.567 15.3404 13.713 16.0212 13.0278C16.702 12.3426 17.5507 12 18.5671 12H33.514C34.5301 12 35.3785 12.3426 36.0593 13.0278C36.7401 13.713 37.0805 14.567 37.0805 15.59V23.8033C36.6588 24.0485 36.2711 24.3015 35.9174 24.5622C35.5634 24.8226 35.2151 25.1052 34.8725 25.41V19.7778H17.2081V44.2222H31.0128C31.1939 44.6381 31.3928 45.0243 31.6095 45.3806C31.8259 45.7365 32.0644 46.0911 32.3249 46.4444H17.2081V48.41C17.2081 48.7522 17.3497 49.0657 17.6331 49.3506C17.9161 49.6354 18.2274 49.7778 18.5671 49.7778H35.467V49.5728C35.5943 49.718 35.7303 49.8504 35.8749 49.97C36.0192 50.0896 36.1763 50.1965 36.3464 50.2906C36.0262 50.8146 35.6078 51.2306 35.0911 51.5383C34.5748 51.8461 33.9782 52 33.3015 52H18.5671ZM44.8087 45.3333C47.0282 45.3333 48.9135 44.5528 50.4647 42.9917C52.0162 41.4302 52.7919 39.5326 52.7919 37.2989C52.7919 35.0656 52.0162 33.1681 50.4647 31.6067C48.9135 30.0456 47.0282 29.265 44.8087 29.265C42.5896 29.265 40.7043 30.0456 39.1528 31.6067C37.6016 33.1681 36.8261 35.0656 36.8261 37.2989C36.8261 39.5326 37.6016 41.4302 39.1528 42.9917C40.7043 44.5528 42.5896 45.3333 44.8087 45.3333ZM40.3926 52V46.5639C38.6604 45.735 37.2649 44.5 36.2062 42.8589C35.1474 41.2178 34.618 39.3644 34.618 37.2989C34.618 35.2337 35.1474 33.3806 36.2062 31.7394C37.2649 30.0983 38.6604 28.8633 40.3926 28.0344V22.5983H49.2248V28.0344C50.9574 28.8633 52.3531 30.0983 53.4119 31.7394C54.4706 33.3806 55 35.2337 55 37.2989C55 39.3644 54.4706 41.2178 53.4119 42.8589C52.3531 44.5 50.9574 45.735 49.2248 46.5639V52H40.3926Z" fill="#26408D"/>
</g>
</svg>
