<svg width="27" height="24" viewBox="0 0 27 24" fill="none" xmlns="http://www.w3.org/2000/svg">
<path fill-rule="evenodd" clip-rule="evenodd" d="M22.6496 5.83157C23.1176 6.27289 23.1167 6.98753 22.6475 7.42777L12.9784 16.5L7.35251 11.2214C6.88331 10.7812 6.88238 10.0665 7.35043 9.62522C7.81849 9.1839 8.57828 9.18302 9.04749 9.62326L12.9784 13.3115L20.9525 5.82961C21.4217 5.38937 22.1815 5.39024 22.6496 5.83157Z" fill="#618BC9"/>
<path fill-rule="evenodd" clip-rule="evenodd" d="M19.1978 5.2628C19.0637 5.12949 18.9256 5.00016 18.7838 4.875C17.1091 3.39689 14.9093 2.5 12.5 2.5C7.25329 2.5 3 6.75329 3 12C3 17.2467 7.25329 21.5 12.5 21.5C17.7467 21.5 22 17.2467 22 12C22 11.5 21.9614 11.0089 21.8869 10.5298L19.5759 12.8408C19.1599 16.3796 16.1506 19.125 12.5 19.125C8.56497 19.125 5.375 15.935 5.375 12C5.375 8.06497 8.56497 4.875 12.5 4.875C14.3086 4.875 15.9548 5.54578 17.2122 6.65563C17.3171 6.74817 17.4192 6.84373 17.5184 6.94219L19.1978 5.2628Z" fill="#618BC9"/>
</svg>
