<svg width="64" height="64" viewBox="0 0 64 64" fill="none" xmlns="http://www.w3.org/2000/svg">
<rect width="64" height="64" rx="32" fill="#F4F7FB"/>
<mask id="mask0_256_344" style="mask-type:alpha" maskUnits="userSpaceOnUse" x="4" y="4" width="56" height="56">
<rect x="4" y="4" width="56" height="56" fill="#D9D9D9"/>
</mask>
<g mask="url(#mask0_256_344)">
<path d="M15.6667 38.6667V36.3334H32V38.6667H15.6667ZM15.6667 29.3334V27.0001H41.3333V29.3334H15.6667ZM15.6667 20.0001V17.6667H41.3333V20.0001H15.6667ZM34.8718 50.3334V45.1779L47.3148 32.7932C47.5451 32.5626 47.7827 32.407 48.0277 32.3265C48.2727 32.2456 48.5177 32.2052 48.7627 32.2052C49.0298 32.2052 49.2923 32.2553 49.5502 32.3557C49.8084 32.4556 50.0429 32.6059 50.2537 32.8066L52.412 35.0098C52.6037 35.2401 52.7496 35.4794 52.8495 35.7279C52.9498 35.976 53 36.2241 53 36.4723C53 36.7208 52.9522 36.9714 52.8565 37.2242C52.7608 37.4769 52.6127 37.7184 52.412 37.9487L40.0278 50.3334H34.8718ZM36.9362 48.2696H39.1528L47.2431 40.1653L46.1482 39.057L45.0848 37.9172L36.9362 46.0529V48.2696ZM46.1482 39.057L45.0848 37.9172L47.2431 40.1653L46.1482 39.057Z" fill="#26408D"/>
</g>
</svg>
