<svg width="48" height="48" viewBox="0 0 48 48" fill="none" xmlns="http://www.w3.org/2000/svg">
<mask id="mask0_299_177" style="mask-type:alpha" maskUnits="userSpaceOnUse" x="0" y="0" width="48" height="48">
<circle cx="24" cy="24" r="24" fill="#F4F7FB"/>
</mask>
<g mask="url(#mask0_299_177)">
<rect x="-5" y="-3" width="60" height="60" fill="#F4F7FB"/>
<path d="M31.5 18.5V25.5C31.5 29.37 28.37 32.5 24.5 32.5C20.63 32.5 17.5 29.37 17.5 25.5V18.5" stroke="#3E518C" stroke-linejoin="round"/>
<path d="M27.5 31.5V34.5C27.5 35.6 28.4 36.5 29.5 36.5L35.6 37.67C37.32 38.16 38.5 39.73 38.5 41.52V53.5H10.5V41.52C10.5 39.73 11.68 38.16 13.4 37.67L19.5 36.5C20.6 36.5 21.5 35.6 21.5 34.5V31.5" stroke="#3E518C" stroke-linejoin="round"/>
<path d="M21.5 34.5C11.5 34.5 11.5 30.5 11.5 30.5C15.5 27.5 15.5 16.5 15.5 16.5C15.5 11.53 19.53 7.5 24.5 7.5C29.47 7.5 33.5 11.53 33.5 16.5C33.5 16.5 33.5 27.5 37.5 30.5C37.5 30.5 37.5 34.5 27.5 34.5" stroke="#3E518C" stroke-linejoin="round"/>
<path d="M15.5 46.5V53.5" stroke="#3E518C" stroke-linejoin="round"/>
<path d="M33.5 46.5V53.5" stroke="#3E518C" stroke-linejoin="round"/>
<path d="M17.5 21.5C24.5 19.5 24.5 14.5 24.5 14.5C24.5 14.5 24.5 19.5 31.5 21.5" stroke="#3E518C" stroke-linejoin="round"/>
<path d="M19.5 36.5L24.5 46.5L29.5 36.5" stroke="#3E518C" stroke-linejoin="round"/>
<path d="M24.5 46.5L31.5 43.5L30.5 40.5L33.5 37.5" stroke="#3E518C" stroke-linejoin="round"/>
<path d="M15.5 37.5L18.5 40.5L17.5 43.5L24.5 46.5V53.5" stroke="#3E518C" stroke-linejoin="round"/>
<path d="M21 39.5H28" stroke="#3E518C" stroke-linejoin="round"/>
</g>
</svg>
