<svg width="48" height="48" viewBox="0 0 48 48" fill="none" xmlns="http://www.w3.org/2000/svg">
<mask id="mask0_299_105" style="mask-type:alpha" maskUnits="userSpaceOnUse" x="0" y="0" width="48" height="48">
<circle cx="24" cy="24" r="24" fill="#F4F7FB"/>
</mask>
<g mask="url(#mask0_299_105)">
<rect x="-5" y="-3" width="60" height="60" fill="#F4F7FB"/>
<path d="M17.5 18.5V25.5C17.5 29.37 20.63 32.5 24.5 32.5C28.37 32.5 31.5 29.37 31.5 25.5V18.5C31.5 18.5 26.5 18.5 20.5 14.5C20.5 14.5 20.5 18.5 17.5 18.5Z" stroke="#3E518C" stroke-linejoin="round"/>
<path d="M21.5 31.5V34.5C21.5 35.6 20.6 36.5 19.5 36.5L13.4 37.67C11.68 38.16 10.5 39.73 10.5 41.52V53.5H38.5V41.52C38.5 39.73 37.32 38.16 35.6 37.67L29.5 36.5C28.4 36.5 27.5 35.6 27.5 34.5V31.5" stroke="#3E518C" stroke-linejoin="round"/>
<path d="M33.5 46.5V53.5" stroke="#3E518C" stroke-linejoin="round"/>
<path d="M15.5 46.5V53.5" stroke="#3E518C" stroke-linejoin="round"/>
<path d="M31.5 26.5C34.5 26.5 34.5 24.5 34.5 24.5V17.5C34.5 11.98 30.02 7.5 24.5 7.5C18.98 7.5 14.5 11.98 14.5 17.5V24.5C14.5 24.5 14.5 26.5 17.5 26.5" stroke="#3E518C" stroke-linejoin="round"/>
<path d="M31.5 18.5C31.5 18.5 31.5 14.5 28.5 14.5" stroke="#3E518C" stroke-linejoin="round"/>
<path d="M24.5 13.5L26.5 17.5" stroke="#3E518C" stroke-linejoin="round"/>
<path d="M20.5 36.04C20.5 36.04 20.5 40.04 24.5 40.04C28.5 40.04 28.5 36.04 28.5 36.04" stroke="#3E518C" stroke-linejoin="round"/>
</g>
</svg>
