<svg width="140" height="140" viewBox="0 0 140 140" fill="none" xmlns="http://www.w3.org/2000/svg">
<rect width="140" height="140" rx="70" fill="#F4F7FB"/>
<path d="M98.1211 82.2026C107.481 82.2026 115.07 74.5712 115.07 65.1583C115.07 56.6241 108.828 49.5764 100.689 48.3306C100.835 47.5603 100.919 46.7688 100.919 45.9563C100.919 38.9749 95.2903 33.3145 88.3479 33.3145C86.2353 33.3145 84.2483 33.8442 82.5008 34.771C78.494 28.8759 71.7611 25 64.1244 25C51.8377 25 41.8789 35.0147 41.8789 47.3707C41.8789 47.6235 41.9089 47.8672 41.9149 48.117C41.9029 48.117 41.8909 48.117 41.8789 48.117C32.5187 48.117 24.93 55.7484 24.93 65.1613C24.93 74.5742 32.5187 81.2667 41.8789 81.2667" fill="#B0CEF8"/>
<path d="M98.1211 82.2026C107.481 82.2026 115.07 74.5712 115.07 65.1583C115.07 56.6241 108.828 49.5764 100.689 48.3306C100.835 47.5603 100.919 46.7688 100.919 45.9563C100.919 38.9749 95.2903 33.3145 88.3479 33.3145C86.2353 33.3145 84.2483 33.8442 82.5008 34.771C78.494 28.8759 71.7611 25 64.1244 25C51.8377 25 41.8789 35.0147 41.8789 47.3707C41.8789 47.6235 41.9089 47.8672 41.9149 48.117C41.9029 48.117 41.8909 48.117 41.8789 48.117C32.5187 48.117 24.93 55.7484 24.93 65.1613C24.93 74.5742 32.5187 81.2667 41.8789 81.2667" stroke="#3E518C" stroke-width="3" stroke-linecap="round" stroke-linejoin="round"/>
<path d="M64.4207 72.209V109.515H49.3839" stroke="#3E518C" stroke-width="3" stroke-linecap="round" stroke-linejoin="round"/>
<path d="M84.8378 71.0203V92.6326H93.1866" stroke="#3E518C" stroke-width="3" stroke-linecap="round" stroke-linejoin="round"/>
<path d="M54.6774 71.0203V96.015H40.4067" stroke="#3E518C" stroke-width="3" stroke-linecap="round" stroke-linejoin="round"/>
<path d="M40.9902 99.8938C43.1205 99.8938 44.8474 98.1572 44.8474 96.0149C44.8474 93.8726 43.1205 92.136 40.9902 92.136C38.8599 92.136 37.133 93.8726 37.133 96.0149C37.133 98.1572 38.8599 99.8938 40.9902 99.8938Z" fill="white" stroke="#3E518C" stroke-width="3" stroke-linecap="round" stroke-linejoin="round"/>
<path d="M76.2766 80.4692V105.467H90.5503" stroke="#3E518C" stroke-width="3" stroke-linecap="round" stroke-linejoin="round"/>
<path d="M89.9668 109.346C92.097 109.346 93.824 107.609 93.824 105.467C93.824 103.325 92.097 101.588 89.9668 101.588C87.8365 101.588 86.1096 103.325 86.1096 105.467C86.1096 107.609 87.8365 109.346 89.9668 109.346Z" fill="white" stroke="#3E518C" stroke-width="3" stroke-linecap="round" stroke-linejoin="round"/>
<path d="M53.6684 112.257C55.1747 110.742 55.1747 108.286 53.6684 106.772C52.1621 105.257 49.7198 105.257 48.2135 106.772C46.7071 108.286 46.7071 110.742 48.2135 112.257C49.7198 113.772 52.1621 113.772 53.6684 112.257Z" fill="#B0CEF8" stroke="#3E518C" stroke-width="3" stroke-linecap="round" stroke-linejoin="round"/>
<path d="M97.2263 96.0149C99.3566 96.0149 101.084 94.2782 101.084 92.136C101.084 89.9937 99.3566 88.2571 97.2263 88.2571C95.0961 88.2571 93.3691 89.9937 93.3691 92.136C93.3691 94.2782 95.0961 96.0149 97.2263 96.0149Z" fill="#B0CEF8" stroke="#3E518C" stroke-width="3" stroke-linecap="round" stroke-linejoin="round"/>
<path d="M85.6943 86.2581C94.3618 77.5418 94.3618 63.4099 85.6943 54.6935C77.0267 45.9772 62.9739 45.9772 54.3063 54.6935C45.6388 63.4099 45.6388 77.5418 54.3063 86.2581C62.9739 94.9744 77.0267 94.9744 85.6943 86.2581Z" fill="white" stroke="#3E518C" stroke-width="3" stroke-linecap="round" stroke-linejoin="round"/>
<path d="M61.8443 82.7743L63.8342 80.8363C64.0138 80.6618 64.2831 80.6317 64.5045 80.7491C65.088 81.065 65.6895 81.3268 66.3089 81.5345C66.5453 81.6157 66.7069 81.8324 66.7039 82.0852L66.659 84.8717C66.656 85.1426 66.8715 85.3683 67.1408 85.3713L72.3865 85.4555C72.6558 85.4585 72.8802 85.2419 72.8832 84.971L72.9281 82.1845C72.9311 81.9317 73.0987 81.7181 73.3411 81.6458C73.9665 81.4593 74.5769 81.2155 75.1694 80.9206C75.3939 80.8093 75.6602 80.8484 75.8367 81.0289L77.7638 83.0301C77.9524 83.2257 78.2636 83.2317 78.4551 83.0421L82.2225 79.3708C82.417 79.1813 82.423 78.8683 82.2345 78.6757L80.3074 76.6746C80.1338 76.494 80.1039 76.2232 80.2206 76.0005C80.5348 75.4137 80.7951 74.8088 81.0016 74.1859C81.0824 73.9482 81.2979 73.7857 81.5492 73.7887L84.3202 73.8338C84.5895 73.8369 84.8139 73.6202 84.8169 73.3494L84.9007 68.0742C84.9037 67.8033 84.6882 67.5776 84.4189 67.5746L81.648 67.5295C81.3966 67.5265 81.1841 67.358 81.1123 67.1142C80.9268 66.4853 80.6844 65.8714 80.3912 65.2756C80.2804 65.0499 80.3193 64.7821 80.4989 64.6045L82.4888 62.6666C82.6833 62.477 82.6893 62.164 82.5008 61.9714L78.8501 58.1828C78.6616 57.9872 78.3503 57.9812 78.1588 58.1708L76.1689 60.1087C75.9893 60.2832 75.72 60.3133 75.4986 60.196C74.9151 59.88 74.3136 59.6182 73.6942 59.4106C73.4578 59.3293 73.2962 59.1127 73.2992 58.8599L73.3441 56.0733C73.347 55.8025 73.1316 55.5768 72.8623 55.5738L67.6166 55.4895C67.3473 55.4865 67.1229 55.7032 67.1199 55.974L67.075 58.7606C67.072 59.0134 66.9044 59.227 66.662 59.2992C66.0366 59.4858 65.4262 59.7295 64.8337 60.0245C64.6092 60.1358 64.3429 60.0967 64.1664 59.9161L62.2393 57.915C62.0507 57.7194 61.7395 57.7134 61.548 57.9029L57.7806 61.5742C57.5861 61.7638 57.5801 62.0768 57.7686 62.2693L59.6957 64.2705C59.8693 64.451 59.8992 64.7219 59.7825 64.9446C59.4683 65.5314 59.208 66.1362 59.0015 66.7591C58.9207 66.9969 58.7052 67.1594 58.4539 67.1563L55.6829 67.1112C55.4136 67.1082 55.1892 67.3249 55.1862 67.5957L55.1024 72.8709C55.0994 73.1417 55.3148 73.3674 55.5842 73.3704L58.3551 73.4156C58.6065 73.4186 58.8189 73.5871 58.8908 73.8308C59.0763 74.4598 59.3187 75.0737 59.6119 75.6695C59.7227 75.8952 59.6838 76.163 59.5042 76.3405L57.5143 78.2785C57.3198 78.4681 57.3138 78.781 57.5023 78.9736L61.153 82.7623C61.3415 82.9579 61.6528 82.9639 61.8443 82.7743ZM66.0246 74.3454C63.9 72.1396 63.9569 68.6188 66.1503 66.4793C68.3438 64.3427 71.8449 64.3999 73.9725 66.6057C76.0971 68.8114 76.0402 72.3322 73.8468 74.4718C71.6534 76.6084 68.1522 76.5512 66.0246 74.3454Z" fill="#F1D37D" stroke="#3E518C" stroke-width="3" stroke-linecap="round" stroke-linejoin="round"/>
</svg>
