<svg width="140" height="140" viewBox="0 0 140 140" fill="none" xmlns="http://www.w3.org/2000/svg">
<rect width="140" height="140" rx="70" fill="#F4F7FB"/>
<path d="M33.4466 63.9997C34.9642 78.6118 41.1274 100.48 70.1972 115.445C70.8699 115.792 71.6618 115.812 72.351 115.502C76.8276 113.501 93.7102 104.865 103.088 84.7741C104.058 82.6933 104.95 80.4925 105.735 78.1617C106.554 75.7408 107.259 73.1798 107.833 70.4788C108.734 66.2172 109.3 61.5989 109.43 56.597C109.466 55.2132 108.79 53.9127 107.637 53.1957L72.5631 31.4077C71.7513 30.9041 70.7274 30.9041 69.9156 31.4077L60.9524 36.9931L33.4466 59.2847V63.9997Z" fill="#B0CEF8" stroke="#3E518C" stroke-width="3" stroke-linecap="round" stroke-linejoin="round"/>
<path d="M83.3288 64.6802H57.8907C56.0387 64.6802 54.5374 66.191 54.5374 68.0548V93.6542C54.5374 95.518 56.0387 97.0288 57.8907 97.0288H83.3288C85.1808 97.0288 86.6821 95.518 86.6821 93.6542V68.0548C86.6821 66.191 85.1808 64.6802 83.3288 64.6802Z" fill="#F1D37D" stroke="#3E518C" stroke-width="3" stroke-linecap="round" stroke-linejoin="round"/>
<path d="M63.0201 64.6802V56.2337C63.0201 52.0322 66.4363 48.5942 70.6114 48.5942C74.7865 48.5942 78.2028 52.0322 78.2028 56.2337V64.6802" stroke="#3E518C" stroke-width="3" stroke-linecap="round" stroke-linejoin="round"/>
<path d="M70.6081 79.2788V87.3485" stroke="#3E518C" stroke-width="3" stroke-linecap="round" stroke-linejoin="round"/>
<path d="M59.5912 49.1831C61.7826 39.8394 56.0323 30.4771 46.7475 28.2718C37.4627 26.0665 28.1593 31.8533 25.9679 41.197C23.7765 50.5407 29.5268 59.903 38.8116 62.1083C48.0965 64.3136 57.3998 58.5268 59.5912 49.1831Z" fill="white" stroke="#3E518C" stroke-width="3" stroke-linecap="round" stroke-linejoin="round"/>
<path d="M34.656 46.85L42.4561 52.8489L51.8269 38.1702" stroke="#3E518C" stroke-width="3" stroke-linecap="round" stroke-linejoin="round"/>
</svg>
