<svg width="335" height="210" viewBox="0 0 335 210" fill="none" xmlns="http://www.w3.org/2000/svg">
<g clip-path="url(#clip0_573_98)">
<path fill-rule="evenodd" clip-rule="evenodd" d="M112.578 191.24C69.9741 169.677 28.8871 132.617 37.4868 85.6459C46.6359 35.674 96.7372 8.08092 147.193 2.17072C199.957 -4.0097 260.581 7.91266 280.432 57.1885C299.038 103.375 256.44 145.701 217.531 176.775C187.022 201.14 147.413 208.872 112.578 191.24Z" fill="#FBFCFD"/>
<g clip-path="url(#clip1_573_98)">
<path d="M90.464 210V153.611C90.464 143.716 98.4696 135.7 108.353 135.7H224.646C234.53 135.7 242.536 143.716 242.536 153.611V210" fill="#93B6E7"/>
<path d="M242.536 153.611H184.916C181.852 153.611 179.047 154.852 177.681 156.82C176.311 158.788 173.51 162.564 170.447 162.564H162.558C159.494 162.564 156.689 158.784 155.323 156.82C153.952 154.852 151.152 153.611 148.089 153.611H90.4689V210H242.541V153.611H242.536Z" fill="white"/>
<path d="M242.536 210V153.611C242.536 143.716 234.53 135.7 224.646 135.7H108.353C98.4696 135.7 90.464 143.716 90.464 153.611V210" stroke="#3E518C" stroke-width="3" stroke-miterlimit="10"/>
<path d="M90.464 153.611H148.084C151.147 153.611 153.952 155.345 155.318 158.09C156.689 160.835 159.49 162.569 162.553 162.569H170.442C173.505 162.569 176.311 160.835 177.676 158.09C179.047 155.345 181.848 153.611 184.911 153.611H242.531" stroke="#3E518C" stroke-width="3" stroke-miterlimit="10"/>
<path d="M111.534 176.44H222.661" stroke="#3E518C" stroke-width="3" stroke-miterlimit="10"/>
<path d="M111.534 196.339H222.661" stroke="#3E518C" stroke-width="3" stroke-miterlimit="10"/>
<path d="M202.347 135.701C202.347 122.879 190.497 112.627 175.881 112.627H157.001C142.386 112.627 130.536 122.879 130.536 135.701H202.352H202.347Z" fill="#BAE2FF" stroke="#3E518C" stroke-width="3" stroke-miterlimit="10"/>
<path d="M124.804 40.115C124.804 40.115 118.627 35.3822 121.745 24.4707" stroke="#3E518C" stroke-width="3" stroke-miterlimit="10"/>
<path d="M206.957 40.115C206.957 40.115 213.133 35.3822 210.016 24.4707" stroke="#3E518C" stroke-width="3" stroke-miterlimit="10"/>
<path d="M216.387 21.2081C215.412 24.4317 211.528 26.8201 207.947 25.7358C204.367 24.6515 202.342 20.8711 203.425 17.286C204.508 13.701 208.284 11.674 211.865 12.7583C215.446 13.8426 217.363 17.9845 216.387 21.2081Z" fill="#F1D37D" stroke="#3E518C" stroke-width="3" stroke-miterlimit="10"/>
<path d="M210.138 52.1793C206.425 56.1258 199.688 55.8083 195.093 51.476C190.497 47.1387 189.78 40.4277 193.493 36.4812C197.205 32.5348 203.942 32.8522 208.538 37.1846C213.133 41.5218 213.85 48.2328 210.138 52.1793Z" fill="#BAE2FF" stroke="#3E518C" stroke-width="3" stroke-miterlimit="10"/>
<path d="M116.549 22.5269C117.681 26.2731 121.628 28.3929 125.37 27.2598C129.111 26.1266 131.229 22.1752 130.097 18.429C128.965 14.6828 125.018 12.563 121.276 13.6961C117.535 14.8293 115.417 18.7807 116.549 22.5269Z" fill="#F1D37D" stroke="#3E518C" stroke-width="3" stroke-miterlimit="10"/>
<path d="M135.547 52.5436C140.835 49.087 142.722 42.6043 139.761 38.0643C136.8 33.5243 130.113 32.646 124.825 36.1027C119.537 39.5594 117.65 46.042 120.611 50.582C123.572 55.1221 130.258 56.0003 135.547 52.5436Z" fill="#BAE2FF" stroke="#3E518C" stroke-width="3" stroke-miterlimit="10"/>
<path d="M211.675 68.1216C214.221 89.124 200.547 106.478 166.471 106.478C132.394 106.478 119.008 89.163 121.267 68.1216C123.774 44.7796 134.385 29.7654 166.471 29.7654C198.556 29.7654 209.167 47.4465 211.675 68.1216Z" fill="white" stroke="#3E518C" stroke-width="3" stroke-miterlimit="10"/>
<path d="M202.996 70.2705C202.996 82.9452 194.385 91.6295 184.033 93.2217C172.842 94.941 158.055 94.477 148.913 93.2217C138.536 91.8004 129.95 82.9452 129.95 70.2705C129.95 57.5958 138.478 48.2278 148.913 47.3193C157.909 46.5378 174.896 46.6209 184.033 47.3193C194.473 48.1155 202.996 57.5958 202.996 70.2705Z" fill="#F1D37D" stroke="#3E518C" stroke-width="3" stroke-miterlimit="10"/>
<path d="M147.537 72.5368C150.652 72.5368 153.177 70.0089 153.177 66.8906C153.177 63.7723 150.652 61.2444 147.537 61.2444C144.423 61.2444 141.898 63.7723 141.898 66.8906C141.898 70.0089 144.423 72.5368 147.537 72.5368Z" fill="white" stroke="#3E518C" stroke-width="3" stroke-miterlimit="10"/>
<path d="M190.458 66.8906C190.458 70.0068 187.936 72.5368 184.819 72.5368C181.701 72.5368 179.179 70.0117 179.179 66.8906C179.179 63.7696 181.701 61.2444 184.819 61.2444C187.936 61.2444 190.458 63.7696 190.458 66.8906Z" fill="white" stroke="#3E518C" stroke-width="3" stroke-miterlimit="10"/>
<path d="M166.471 88.6013C159.616 88.6013 154.25 84.6938 154.25 79.7021C154.25 78.8718 154.923 78.1978 155.753 78.1978C156.582 78.1978 157.255 78.8718 157.255 79.7021C157.255 82.8915 161.475 85.5877 166.471 85.5877C171.466 85.5877 175.686 82.8915 175.686 79.7021C175.686 78.8718 176.359 78.1978 177.189 78.1978C178.018 78.1978 178.691 78.8718 178.691 79.7021C178.691 84.6938 173.325 88.6013 166.471 88.6013Z" fill="#3E518C"/>
<path d="M296.038 16.6267H251.849C246.604 16.6267 242.35 20.8858 242.35 26.1364V43.3388C242.35 44.8041 242.024 45.5758 241.165 47.4904L233.755 63.296C233.32 63.9944 233.94 64.8687 234.74 64.6929L245.6 59.9209C246.522 59.5155 247.517 59.3055 248.527 59.3055L296.038 59.286C301.282 59.286 305.532 55.0269 305.532 49.7763V26.1364C305.532 20.8858 301.278 16.6267 296.033 16.6267H296.038Z" fill="#BAE2FF" stroke="#3E518C" stroke-width="3" stroke-miterlimit="10"/>
<path d="M262.933 38.6255C262.933 40.8185 261.157 42.5964 258.967 42.5964C256.776 42.5964 255 40.8185 255 38.6255C255 36.4324 256.776 34.6545 258.967 34.6545C261.157 34.6545 262.933 36.4324 262.933 38.6255Z" fill="white"/>
<path d="M258.967 44.1007C255.952 44.1007 253.493 41.6439 253.493 38.6205C253.493 35.5972 255.947 33.1404 258.967 33.1404C261.986 33.1404 264.44 35.5972 264.44 38.6205C264.44 41.6439 261.986 44.1007 258.967 44.1007ZM258.967 36.1589C257.61 36.1589 256.503 37.2676 256.503 38.6254C256.503 39.9832 257.61 41.092 258.967 41.092C260.323 41.092 261.43 39.9832 261.43 38.6254C261.43 37.2676 260.323 36.1589 258.967 36.1589Z" fill="#3E518C"/>
<path d="M277.763 38.6255C277.763 40.8185 275.988 42.5964 273.797 42.5964C271.607 42.5964 269.831 40.8185 269.831 38.6255C269.831 36.4324 271.607 34.6545 273.797 34.6545C275.988 34.6545 277.763 36.4324 277.763 38.6255Z" fill="white"/>
<path d="M273.797 44.1007C270.782 44.1007 268.323 41.6439 268.323 38.6205C268.323 35.5972 270.777 33.1404 273.797 33.1404C276.817 33.1404 279.271 35.5972 279.271 38.6205C279.271 41.6439 276.817 44.1007 273.797 44.1007ZM273.797 36.1589C272.441 36.1589 271.333 37.2676 271.333 38.6254C271.333 39.9832 272.441 41.092 273.797 41.092C275.153 41.092 276.261 39.9832 276.261 38.6254C276.261 37.2676 275.153 36.1589 273.797 36.1589Z" fill="#3E518C"/>
<path d="M292.891 38.6255C292.891 40.8185 291.116 42.5964 288.925 42.5964C286.735 42.5964 284.959 40.8185 284.959 38.6255C284.959 36.4324 286.735 34.6545 288.925 34.6545C291.116 34.6545 292.891 36.4324 292.891 38.6255Z" fill="white"/>
<path d="M288.92 44.1007C285.905 44.1007 283.447 41.6439 283.447 38.6205C283.447 35.5972 285.901 33.1404 288.92 33.1404C291.94 33.1404 294.394 35.5972 294.394 38.6205C294.394 41.6439 291.94 44.1007 288.92 44.1007ZM288.92 36.1589C287.564 36.1589 286.457 37.2676 286.457 38.6254C286.457 39.9832 287.564 41.092 288.92 41.092C290.277 41.092 291.384 39.9832 291.384 38.6254C291.384 37.2676 290.277 36.1589 288.92 36.1589Z" fill="#3E518C"/>
<path d="M38.9619 122.654H83.1512C88.3955 122.654 92.6495 118.395 92.6495 113.145V95.9423C92.6495 94.4771 92.9764 93.7053 93.835 91.7907L101.245 75.9852C101.68 75.2867 101.06 74.4125 100.26 74.5883L89.4005 79.3602C88.4784 79.7656 87.4832 79.9756 86.4734 79.9756L38.9619 79.9952C33.7176 79.9952 29.4684 84.2543 29.4684 89.5049V113.155C29.4684 118.405 33.7224 122.664 38.9668 122.664L38.9619 122.654Z" fill="#BAE2FF" stroke="#3E518C" stroke-width="3" stroke-miterlimit="10"/>
<path d="M72.0672 100.661C72.0672 98.4676 73.843 96.6897 76.0334 96.6897C78.2239 96.6897 79.9996 98.4676 79.9996 100.661C79.9996 102.854 78.2239 104.632 76.0334 104.632C73.843 104.632 72.0672 102.854 72.0672 100.661Z" fill="white"/>
<path d="M76.0334 95.1804C79.0483 95.1804 81.5071 97.6372 81.5071 100.661C81.5071 103.684 79.0532 106.141 76.0334 106.141C73.0137 106.141 70.5598 103.684 70.5598 100.661C70.5598 97.6372 73.0137 95.1804 76.0334 95.1804ZM76.0334 103.127C77.3896 103.127 78.4971 102.018 78.4971 100.661C78.4971 99.3027 77.3896 98.194 76.0334 98.194C74.6772 98.194 73.5698 99.3027 73.5698 100.661C73.5698 102.018 74.6772 103.127 76.0334 103.127Z" fill="#3E518C"/>
<path d="M57.2367 100.661C57.2367 98.4676 59.0124 96.6897 61.2029 96.6897C63.3933 96.6897 65.1691 98.4676 65.1691 100.661C65.1691 102.854 63.3933 104.632 61.2029 104.632C59.0124 104.632 57.2367 102.854 57.2367 100.661Z" fill="white"/>
<path d="M61.2029 95.1804C64.2178 95.1804 66.6765 97.6372 66.6765 100.661C66.6765 103.684 64.2226 106.141 61.2029 106.141C58.1831 106.141 55.7292 103.684 55.7292 100.661C55.7292 97.6372 58.1831 95.1804 61.2029 95.1804ZM61.2029 103.127C62.5591 103.127 63.6665 102.018 63.6665 100.661C63.6665 99.3027 62.5591 98.194 61.2029 98.194C59.8466 98.194 58.7392 99.3027 58.7392 100.661C58.7392 102.018 59.8466 103.127 61.2029 103.127Z" fill="#3E518C"/>
<path d="M42.1085 100.661C42.1085 98.4676 43.8843 96.6897 46.0747 96.6897C48.2652 96.6897 50.0409 98.4676 50.0409 100.661C50.0409 102.854 48.2652 104.632 46.0747 104.632C43.8843 104.632 42.1085 102.854 42.1085 100.661Z" fill="white"/>
<path d="M46.0796 95.1804C49.0945 95.1804 51.5533 97.6372 51.5533 100.661C51.5533 103.684 49.0994 106.141 46.0796 106.141C43.0598 106.141 40.606 103.684 40.606 100.661C40.606 97.6372 43.0598 95.1804 46.0796 95.1804ZM46.0796 103.127C47.4358 103.127 48.5432 102.018 48.5432 100.661C48.5432 99.3027 47.4358 98.194 46.0796 98.194C44.7234 98.194 43.616 99.3027 43.616 100.661C43.616 102.018 44.7234 103.127 46.0796 103.127Z" fill="#3E518C"/>
<path d="M257.269 78.2663H251.6C250.449 78.2663 249.873 79.6583 250.688 80.474L257.274 87.0677V90.135C257.274 93.5736 260.059 96.3576 263.489 96.3576H286.213C289.647 96.3576 292.428 93.5687 292.428 90.135V76.6642C292.428 73.2257 289.642 70.4417 286.213 70.4417H263.489C260.054 70.4417 257.274 73.2306 257.274 76.6642V78.2663H257.269Z" fill="#BAE2FF" stroke="#3E518C" stroke-width="3" stroke-miterlimit="10"/>
<path d="M166.993 151.584C168.402 151.584 169.544 150.44 169.544 149.03C169.544 147.619 168.402 146.475 166.993 146.475C165.584 146.475 164.441 147.619 164.441 149.03C164.441 150.44 165.584 151.584 166.993 151.584Z" stroke="#3E518C" stroke-width="3" stroke-miterlimit="10"/>
</g>
</g>
<defs>
<clipPath id="clip0_573_98">
<rect width="335" height="210" fill="white"/>
</clipPath>
<clipPath id="clip1_573_98">
<rect width="279" height="199" fill="white" transform="translate(28 11)"/>
</clipPath>
</defs>
</svg>
