<svg width="48" height="48" viewBox="0 0 48 48" fill="none" xmlns="http://www.w3.org/2000/svg">
<mask id="mask0_299_57" style="mask-type:alpha" maskUnits="userSpaceOnUse" x="0" y="0" width="48" height="48">
<circle cx="24" cy="24" r="24" fill="#F4F7FB"/>
</mask>
<g mask="url(#mask0_299_57)">
<rect x="-5" y="-3" width="60" height="60" fill="#F4F7FB"/>
<path d="M19.1621 16.9455C18.5121 17.8732 16.875 19.0432 16.875 20.1759V25.4999C16.875 29.5773 20.1727 32.8749 24.25 32.8749C28.3273 32.8749 31.625 29.5773 31.625 25.4999V22.4733C31.625 20.0718 29.6599 18.0406 27.3542 17.3689C26.1855 17.0285 24.8302 16.5347 23.3576 15.8185C21.8844 15.1021 20.1021 15.604 19.1621 16.9455V16.9455Z" stroke="#3E518C" stroke-linejoin="round"/>
<path d="M31.625 37.4895V37.4895C30.2233 37.2232 28.4771 37.299 27.7254 36.0863C27.526 35.7647 27.4107 35.3862 27.4107 34.982V31.8213" stroke="#3E518C" stroke-linejoin="round"/>
<path d="M13.7143 38.1003L12.5554 38.3216C10.7432 38.8378 9.5 40.492 9.5 42.3778V42.3778C9.5 49.3487 15.151 54.9996 22.1218 54.9996H26.3782C33.349 54.9996 39 49.3487 39 42.3778V42.3778C39 40.492 37.7568 38.8378 35.9446 38.3216L34.7857 38.1003" stroke="#3E518C" stroke-linejoin="round"/>
<path d="M21.0893 31.8213V34.982C21.0893 35.3862 20.974 35.7647 20.7746 36.0863C20.0229 37.299 18.2767 37.2232 16.875 37.4895V37.4895" stroke="#3E518C" stroke-linejoin="round"/>
<path d="M33.7321 47.625V55" stroke="#3E518C" stroke-linejoin="round"/>
<path d="M14.7679 47.625V55" stroke="#3E518C" stroke-linejoin="round"/>
<path d="M16.875 26.5535V34.5358C16.875 38.2735 13.7143 39.7733 13.7143 36.0356V36.0356V17.0714C13.7143 11.2556 18.4343 6.53564 24.25 6.53564C30.0657 6.53564 34.7857 11.2556 34.7857 17.0714V36.0356V36.0356C34.7857 39.7733 31.625 38.2735 31.625 34.5358V26.5535" stroke="#3E518C" stroke-linejoin="round"/>
<path d="M20.0357 36.6045C20.0357 36.6045 20.0357 40.8188 24.25 40.8188C28.4643 40.8188 28.4643 36.6045 28.4643 36.6045" stroke="#3E518C" stroke-linejoin="round"/>
</g>
</svg>
