<svg width="335" height="210" viewBox="0 0 335 210" fill="none" xmlns="http://www.w3.org/2000/svg">
<path fill-rule="evenodd" clip-rule="evenodd" d="M187.638 6.01944C236.022 6.68764 282.462 28.8015 296.106 67.1518C308.814 102.869 277.677 135.301 241.555 157.563C203.462 181.041 154.988 200.086 115.146 178.68C69.789 154.311 49.6722 106.22 67.4011 63.9933C84.2122 23.9527 136.338 5.31099 187.638 6.01944Z" fill="white" fill-opacity="0.6"/>
<g clip-path="url(#clip0_334_496)">
<path d="M97.4257 195.556V70.1857C97.4257 62.1339 103.939 55.6129 111.982 55.6129H206.61C214.652 55.6129 221.166 62.1339 221.166 70.1857V195.556" fill="#93B6E7"/>
<path d="M221.597 69.7H174.495C171.991 69.7 169.701 70.7728 168.579 72.4801C167.456 74.1795 165.166 77.5602 162.662 77.5602H156.214C153.71 77.5602 151.42 74.1873 150.298 72.4801C149.175 70.7807 146.885 69.7 144.381 69.7H97.2791V214.6H221.605V69.7H221.597Z" fill="white"/>
<path d="M221.166 214.6V70.1857C221.166 62.1339 214.652 55.6129 206.61 55.6129H111.982C103.939 55.6129 97.4257 62.1339 97.4257 70.1857V214.6" stroke="#3E518C" stroke-width="3" stroke-linecap="round" stroke-linejoin="round"/>
<path d="M97.4257 70.1858H144.306C146.798 70.1858 149.077 71.5989 150.195 73.829C151.312 76.0591 153.591 77.4722 156.083 77.4722H162.501C164.993 77.4722 167.272 76.0591 168.39 73.829C169.507 71.5989 171.786 70.1858 174.278 70.1858H221.158" stroke="#3E518C" stroke-width="3" stroke-linecap="round" stroke-linejoin="round"/>
<path d="M114.569 134.468H204.993" stroke="#3E518C" stroke-width="3" stroke-linecap="round" stroke-linejoin="round"/>
<path d="M132.531 103.115C133.038 103.115 133.468 102.938 133.821 102.583C134.174 102.229 134.35 101.798 134.35 101.292C134.35 100.785 134.173 100.356 133.818 100.003C133.463 99.6506 133.032 99.4743 132.525 99.4743C132.018 99.4743 131.588 99.6516 131.235 100.006C130.882 100.361 130.706 100.791 130.706 101.298C130.706 101.804 130.883 102.234 131.238 102.586C131.593 102.939 132.024 103.115 132.531 103.115ZM123.045 103.115C123.552 103.115 123.982 102.938 124.335 102.583C124.687 102.229 124.864 101.798 124.864 101.292C124.864 100.785 124.686 100.356 124.331 100.003C123.977 99.6506 123.546 99.4743 123.039 99.4743C122.531 99.4743 122.101 99.6516 121.749 100.006C121.396 100.361 121.219 100.791 121.219 101.298C121.219 101.804 121.397 102.234 121.752 102.586C122.107 102.939 122.538 103.115 123.045 103.115ZM127.785 112.003C129.239 112.003 130.568 111.597 131.772 110.784C132.977 109.971 133.865 108.896 134.436 107.559H121.134C121.705 108.896 122.593 109.971 123.797 110.784C125.002 111.597 126.331 112.003 127.785 112.003ZM127.787 118C125.956 118 124.235 117.653 122.624 116.959C121.013 116.265 119.611 115.322 118.42 114.132C117.228 112.942 116.285 111.543 115.589 109.934C114.894 108.325 114.547 106.606 114.547 104.777C114.547 102.948 114.894 101.229 115.589 99.6194C116.284 98.0099 117.227 96.6099 118.418 95.4194C119.609 94.2289 121.01 93.2864 122.621 92.5917C124.231 91.8973 125.952 91.55 127.782 91.55C129.614 91.55 131.335 91.8971 132.946 92.5913C134.557 93.2855 135.958 94.2276 137.15 95.4177C138.342 96.6077 139.285 98.0071 139.981 99.6159C140.676 101.225 141.023 102.944 141.023 104.773C141.023 106.602 140.676 108.321 139.981 109.931C139.286 111.54 138.343 112.94 137.152 114.131C135.961 115.321 134.56 116.264 132.949 116.958C131.339 117.653 129.618 118 127.787 118ZM127.785 115.912C130.897 115.912 133.533 114.833 135.693 112.675C137.853 110.517 138.933 107.884 138.933 104.775C138.933 101.666 137.853 99.0326 135.693 96.8749C133.533 94.7171 130.897 93.6382 127.785 93.6382C124.673 93.6382 122.037 94.7171 119.877 96.8749C117.717 99.0326 116.637 101.666 116.637 104.775C116.637 107.884 117.717 110.517 119.877 112.675C122.037 114.833 124.673 115.912 127.785 115.912Z" fill="#3E518C"/>
<path d="M114.569 150.66H204.993" stroke="#3E518C" stroke-width="3" stroke-linecap="round" stroke-linejoin="round"/>
<path d="M114.569 166.116H204.993" stroke="#3E518C" stroke-width="3" stroke-linecap="round" stroke-linejoin="round"/>
<path d="M114.569 181.572H185.144" stroke="#3E518C" stroke-width="3" stroke-linecap="round" stroke-linejoin="round"/>
<path d="M209.484 93.2755V114.122L226.142 93.2755H259.458C264.06 93.2755 267.787 89.5439 267.787 84.9368V39.0741C267.787 34.467 264.06 30.7355 259.458 30.7355H201.155C196.553 30.7355 192.826 34.467 192.826 39.0741V84.9368C192.826 89.5439 196.553 93.2755 201.155 93.2755H209.484Z" fill="#F1D37D"/>
<path d="M209.619 93.14V113.987L226.277 93.14H259.593C264.195 93.14 267.922 89.4085 267.922 84.8013V38.9386C267.922 34.3315 264.195 30.6 259.593 30.6H201.29C196.688 30.6 192.961 34.3315 192.961 38.9386V55.616L192.826 84.9368C192.826 84.9368 193.346 93.2755 201.155 93.2755L209.619 93.14Z" stroke="#3E518C" stroke-width="3" stroke-linecap="round" stroke-linejoin="round"/>
<path d="M211.701 66.0394C214.001 66.0394 215.866 64.1727 215.866 61.87C215.866 59.5674 214.001 57.7007 211.701 57.7007C209.401 57.7007 207.537 59.5674 207.537 61.87C207.537 64.1727 209.401 66.0394 211.701 66.0394Z" fill="#3E518C"/>
<path d="M230.442 66.0394C232.742 66.0394 234.606 64.1727 234.606 61.87C234.606 59.5674 232.742 57.7007 230.442 57.7007C228.142 57.7007 226.277 59.5674 226.277 61.87C226.277 64.1727 228.142 66.0394 230.442 66.0394Z" fill="#3E518C"/>
<path d="M249.182 66.0394C251.482 66.0394 253.346 64.1727 253.346 61.87C253.346 59.5674 251.482 57.7007 249.182 57.7007C246.882 57.7007 245.017 59.5674 245.017 61.87C245.017 64.1727 246.882 66.0394 249.182 66.0394Z" fill="#3E518C"/>
<path d="M86.8248 137.412H104.468L86.8248 119.748V102.084C86.8248 98.8309 84.193 96.196 80.9436 96.196H28.0129C24.7635 96.196 22.1317 98.8309 22.1317 102.084V149.188C22.1317 152.441 24.7635 155.076 28.0129 155.076H80.9436C84.193 155.076 86.8248 152.441 86.8248 149.188V137.412Z" fill="#BAE2FF"/>
<path d="M86.6337 137.603H104.277L86.6337 119.939V102.275C86.6337 99.0223 84.0018 96.3875 80.7525 96.3875H27.8218C24.5724 96.3875 21.9406 99.0223 21.9406 102.275V149.379C21.9406 152.633 24.5724 155.267 27.8218 155.267H80.7525C84.0018 155.267 86.6337 152.633 86.6337 149.379V137.603Z" stroke="#3E518C" stroke-width="3" stroke-linecap="round" stroke-linejoin="round"/>
<path d="M68.9901 137.603H39.5841" stroke="#3E518C" stroke-width="3" stroke-linecap="round" stroke-linejoin="round"/>
<path d="M68.9901 125.827H39.5841" stroke="#3E518C" stroke-width="3" stroke-linecap="round" stroke-linejoin="round"/>
<path d="M68.9901 114.051H39.5841" stroke="#3E518C" stroke-width="3" stroke-linecap="round" stroke-linejoin="round"/>
<path d="M242.91 135.149H229.663L242.91 121.886V108.623C242.91 106.18 244.888 104.2 247.328 104.2H287.071C289.511 104.2 291.489 106.18 291.489 108.623V143.988C291.489 146.432 289.511 148.411 287.071 148.411H247.328C244.888 148.411 242.91 146.432 242.91 143.988V135.149Z" fill="#BAE2FF"/>
<path d="M243.05 135.296H229.802L243.05 122.033V108.771C243.05 106.327 245.027 104.347 247.468 104.347H287.21C289.651 104.347 291.628 106.327 291.628 108.771V144.135C291.628 146.579 289.651 148.559 287.21 148.559H247.468C245.027 148.559 243.05 146.579 243.05 144.135V135.296Z" stroke="#3E518C" stroke-width="3" stroke-linecap="round" stroke-linejoin="round"/>
</g>
<defs>
<clipPath id="clip0_334_496">
<rect width="297" height="184" fill="white" transform="translate(19 26)"/>
</clipPath>
</defs>
</svg>
