<svg width="335" height="210" viewBox="0 0 335 210" fill="none" xmlns="http://www.w3.org/2000/svg">
<path fill-rule="evenodd" clip-rule="evenodd" d="M162.739 12.1299C195.87 11.018 231.656 4.46424 257.737 21.8508C285.897 40.623 300.192 72.1643 298.34 102.526C296.563 131.664 274.619 156.42 248.38 175.254C224.453 192.429 194.025 201.243 162.739 199.858C133.059 198.544 107.493 185.102 85.5849 168.048C62.3906 149.992 39.7304 129.191 37.7084 102.526C35.5851 74.5232 49.805 46.1748 74.9645 27.9847C98.6423 10.866 131.667 13.1727 162.739 12.1299Z" fill="white"/>
<path d="M94.5217 161.07L94.3639 161.386V161.739V168.967H49.4547V161.739V161.386L49.2968 161.07L43.8465 150.147H99.9721L94.5217 161.07Z" fill="#93B6E7" stroke="#3E518C" stroke-width="3"/>
<path d="M48.8825 160.239L43.8465 150.147H99.9721L94.936 160.239H48.8825Z" fill="#BAE2FF" stroke="#3E518C" stroke-width="3"/>
<path d="M94.3639 52.6387V52.9922L94.5217 53.3085L99.9721 64.2308H43.8465L49.2968 53.3085L49.4547 52.9922V52.6387V45.4106H94.3639V52.6387Z" fill="#93B6E7" stroke="#3E518C" stroke-width="3"/>
<path d="M48.8825 54.1387H94.936L99.9721 64.2308H43.8465L48.8825 54.1387Z" fill="#BAE2FF" stroke="#3E518C" stroke-width="3"/>
<path d="M39.2439 62.8668H104.575C110.96 62.8668 116.141 68.054 116.141 74.4589V139.919C116.141 146.324 110.96 151.511 104.575 151.511H39.2439C32.8589 151.511 27.6777 146.324 27.6777 139.919V74.4589C27.6777 68.054 32.8589 62.8668 39.2439 62.8668Z" fill="#93B6E7" stroke="#3E518C" stroke-width="3"/>
<path d="M107.43 74.4589V139.919C107.43 141.504 106.149 142.783 104.575 142.783H39.2439C37.6697 142.783 36.3885 141.504 36.3885 139.919V74.4589C36.3885 72.8743 37.6697 71.5948 39.2439 71.5948H104.575C106.149 71.5948 107.43 72.8743 107.43 74.4589Z" fill="white" stroke="#3E518C" stroke-width="3"/>
<path d="M43.5993 83.1869C42.3961 83.1869 41.4216 82.2105 41.4216 81.0049V78.8229C41.4216 77.6173 42.3961 76.6409 43.5993 76.6409C44.8024 76.6409 45.777 77.6173 45.777 78.8229V81.0049C45.777 82.2105 44.8024 83.1869 43.5993 83.1869Z" fill="#BAE2FF"/>
<path d="M50.1323 83.1869C48.9292 83.1869 47.9547 82.2105 47.9547 81.0049V78.8229C47.9547 77.6173 48.9292 76.6409 50.1323 76.6409C51.3355 76.6409 52.31 77.6173 52.31 78.8229V81.0049C52.31 82.2105 51.3355 83.1869 50.1323 83.1869Z" fill="#BAE2FF"/>
<path d="M56.6654 83.1869C55.4622 83.1869 54.4877 82.2105 54.4877 81.0049V78.8229C54.4877 77.6173 55.4622 76.6409 56.6654 76.6409C57.8686 76.6409 58.8431 77.6173 58.8431 78.8229V81.0049C58.8431 82.2105 57.8686 83.1869 56.6654 83.1869Z" fill="#BAE2FF"/>
<path d="M87.1586 83.1869C85.9608 83.1869 84.9754 82.2105 84.9754 81.0049C84.9754 79.7993 85.9391 78.8229 87.1368 78.8229H87.1586C88.3563 78.8229 89.3308 79.7993 89.3308 81.0049C89.3308 82.2105 88.3563 83.1869 87.1586 83.1869ZM95.8639 81.0049V78.8229C95.8639 77.6173 94.8894 76.6409 93.6862 76.6409C92.483 76.6409 91.5085 77.6173 91.5085 78.8229V81.0049C91.5085 82.2105 92.483 83.1869 93.6862 83.1869C94.8894 83.1869 95.8639 82.2105 95.8639 81.0049ZM102.397 81.0049V76.6409C102.397 75.4353 101.422 74.4589 100.219 74.4589C99.0161 74.4589 98.0416 75.4353 98.0416 76.6409V81.0049C98.0416 82.2105 99.0161 83.1869 100.219 83.1869C101.422 83.1869 102.397 82.2105 102.397 81.0049Z" fill="#BAE2FF"/>
<path d="M74.087 137.737H69.7316C68.5284 137.737 67.5539 136.761 67.5539 135.555C67.5539 134.35 68.5284 133.373 69.7316 133.373H74.087C75.2902 133.373 76.2647 134.35 76.2647 135.555C76.2647 136.761 75.2902 137.737 74.087 137.737Z" fill="#93B6E7"/>
<path d="M95.8639 137.737H91.5085C90.3053 137.737 89.3308 136.761 89.3308 135.555C89.3308 134.35 90.3053 133.373 91.5085 133.373H95.8639C97.0671 133.373 98.0416 134.35 98.0416 135.555C98.0416 136.761 97.0671 137.737 95.8639 137.737Z" fill="#BAE2FF"/>
<path d="M52.31 137.737H47.9546C46.7515 137.737 45.7769 136.761 45.7769 135.555C45.7769 134.35 46.7515 133.373 47.9546 133.373H52.31C53.5132 133.373 54.4877 134.35 54.4877 135.555C54.4877 136.761 53.5132 137.737 52.31 137.737Z" fill="#BAE2FF"/>
<path d="M43.0548 107.189H56.3932L62.3819 95.188L71.3649 119.19L80.3478 101.189L86.3365 107.189H100.764" stroke="#3E518C" stroke-width="3" stroke-linecap="round" stroke-linejoin="round"/>
<path d="M228.965 30.682H299.043C304.165 30.682 308.322 34.8434 308.322 39.983V175.017C308.322 180.157 304.165 184.318 299.043 184.318H228.965C223.842 184.318 219.685 180.157 219.685 175.017V39.983C219.685 34.8434 223.842 30.682 228.965 30.682Z" fill="#93B6E7" stroke="#3E518C" stroke-width="3"/>
<path d="M308.328 41.483V168.111H219.69V41.483H252.908C254.183 41.483 255.353 42.2068 255.928 43.3548C257.008 45.5125 259.213 46.8835 261.63 46.8835H266.383C268.8 46.8835 271.005 45.5125 272.085 43.3548C272.66 42.2068 273.83 41.483 275.104 41.483H308.328Z" fill="white" stroke="#3E518C" stroke-width="3"/>
<path d="M299.848 108.826C296.979 108.826 293.985 102.815 290.865 96.5527C287.474 89.7453 283.936 82.6414 280.249 82.6414C277.651 82.6414 275.797 85.0019 273.858 87.4699C271.735 90.1734 269.51 93.006 266.094 93.006C263.406 93.006 260.89 89.381 258.051 85.29C254.374 79.9923 250.154 73.9133 244.317 73.9133C236.151 73.9133 229.618 89.1874 229.618 89.1874V121.372H299.848V108.826Z" fill="#BAE2FF"/>
<path d="M299.848 108.826C296.979 108.826 293.985 102.815 290.865 96.5527C287.474 89.7453 283.936 82.6414 280.249 82.6414C277.651 82.6414 275.797 85.0019 273.858 87.4699C271.735 90.1734 269.51 93.006 266.094 93.006C263.406 93.006 260.89 89.381 258.051 85.29C254.374 79.9923 250.154 73.9133 244.317 73.9133C236.151 73.9133 229.618 89.1874 229.618 89.1874V121.372H299.848V108.826Z" stroke="#3E518C"/>
<path d="M229.618 74.4589V121.372H299.848" stroke="#3E518C" stroke-width="3" stroke-linecap="round" stroke-linejoin="round"/>
<path d="M233.429 132.588H229.073C228.701 132.588 228.396 132.286 228.396 131.906C228.396 131.526 228.701 131.224 229.073 131.224H233.429C233.801 131.224 234.107 131.526 234.107 131.906C234.107 132.286 233.801 132.588 233.429 132.588Z" fill="#93B6E7" stroke="#3E518C" stroke-width="3"/>
<path d="M298.76 132.588H294.404C294.032 132.588 293.727 132.286 293.727 131.906C293.727 131.526 294.032 131.224 294.404 131.224H298.76C299.132 131.224 299.437 131.526 299.437 131.906C299.437 132.286 299.132 132.588 298.76 132.588Z" fill="#93B6E7" stroke="#3E518C" stroke-width="3"/>
<path d="M265.55 132.588H261.194C260.822 132.588 260.517 132.286 260.517 131.906C260.517 131.526 260.822 131.224 261.194 131.224H265.55C265.922 131.224 266.227 131.526 266.227 131.906C266.227 132.286 265.922 132.588 265.55 132.588Z" fill="#93B6E7" stroke="#3E518C" stroke-width="3"/>
<ellipse cx="137.329" cy="108.28" rx="3.81096" ry="3.81853" fill="#3E518C"/>
<ellipse cx="177.329" cy="108.28" rx="3.81096" ry="3.81853" fill="#3E518C"/>
<ellipse cx="157.329" cy="108.28" rx="3.81096" ry="3.81853" fill="#3E518C"/>
<ellipse cx="197.671" cy="108.28" rx="3.81096" ry="3.81853" fill="#3E518C"/>
<path d="M174.991 148.053C175.738 148.053 176.372 147.791 176.891 147.268C177.411 146.745 177.671 146.111 177.671 145.364C177.671 144.617 177.41 143.984 176.887 143.464C176.364 142.944 175.729 142.684 174.982 142.684C174.235 142.684 173.602 142.946 173.082 143.469C172.563 143.991 172.303 144.626 172.303 145.373C172.303 146.12 172.564 146.753 173.087 147.273C173.61 147.793 174.244 148.053 174.991 148.053ZM161.018 148.053C161.765 148.053 162.398 147.791 162.918 147.268C163.437 146.745 163.697 146.111 163.697 145.364C163.697 144.617 163.436 143.984 162.913 143.464C162.39 142.944 161.756 142.684 161.009 142.684C160.262 142.684 159.628 142.946 159.109 143.469C158.589 143.991 158.329 144.626 158.329 145.373C158.329 146.12 158.59 146.753 159.113 147.273C159.636 147.793 160.271 148.053 161.018 148.053ZM168 153.579C165.858 153.579 163.9 154.178 162.126 155.377C160.353 156.576 159.045 158.161 158.203 160.131H160.918C161.671 158.866 162.672 157.865 163.92 157.129C165.169 156.394 166.529 156.026 168 156.026C169.471 156.026 170.831 156.394 172.08 157.129C173.328 157.865 174.329 158.866 175.082 160.131H177.797C176.955 158.161 175.647 156.576 173.874 155.377C172.1 154.178 170.142 153.579 168 153.579ZM168.004 170C165.306 170 162.771 169.488 160.398 168.465C158.025 167.441 155.961 166.052 154.205 164.297C152.45 162.543 151.06 160.479 150.036 158.107C149.012 155.735 148.5 153.2 148.5 150.504C148.5 147.806 149.012 145.271 150.035 142.898C151.059 140.525 152.448 138.461 154.203 136.705C155.957 134.95 158.021 133.56 160.393 132.536C162.765 131.512 165.3 131 167.996 131C170.694 131 173.229 131.512 175.602 132.535C177.975 133.559 180.039 134.948 181.795 136.703C183.55 138.457 184.94 140.521 185.964 142.893C186.988 145.265 187.5 147.8 187.5 150.496C187.5 153.194 186.988 155.729 185.965 158.102C184.941 160.475 183.552 162.539 181.797 164.295C180.043 166.05 177.979 167.44 175.607 168.464C173.235 169.488 170.7 170 168.004 170ZM168 166.921C172.584 166.921 176.467 165.33 179.649 162.149C182.83 158.967 184.421 155.084 184.421 150.5C184.421 145.916 182.83 142.033 179.649 138.851C176.467 135.67 172.584 134.079 168 134.079C163.416 134.079 159.533 135.67 156.351 138.851C153.17 142.033 151.579 145.916 151.579 150.5C151.579 155.084 153.17 158.967 156.351 162.149C159.533 165.33 163.416 166.921 168 166.921Z" fill="#93B6E7"/>
<path d="M174.633 60.1782C175.342 60.1782 175.943 59.9301 176.436 59.4339C176.929 58.9379 177.175 58.3357 177.175 57.6272C177.175 56.9187 176.927 56.3179 176.431 55.8249C175.935 55.3316 175.333 55.0849 174.624 55.0849C173.915 55.0849 173.315 55.333 172.822 55.8293C172.329 56.3252 172.082 56.9274 172.082 57.636C172.082 58.3445 172.33 58.9452 172.826 59.4382C173.322 59.9316 173.924 60.1782 174.633 60.1782ZM161.376 60.1782C162.085 60.1782 162.685 59.9301 163.178 59.4339C163.671 58.9379 163.918 58.3357 163.918 57.6272C163.918 56.9187 163.67 56.3179 163.174 55.8249C162.678 55.3316 162.076 55.0849 161.367 55.0849C160.658 55.0849 160.057 55.333 159.564 55.8293C159.071 56.3252 158.825 56.9274 158.825 57.636C158.825 58.3445 159.073 58.9452 159.569 59.4382C160.065 59.9316 160.667 60.1782 161.376 60.1782ZM168 72.6112C170.032 72.6112 171.89 72.0426 173.572 70.9053C175.255 69.7681 176.496 68.2645 177.295 66.3947H158.705C159.504 68.2645 160.745 69.7681 162.428 70.9053C164.11 72.0426 165.968 72.6112 168 72.6112ZM168.003 81C165.445 81 163.039 80.5145 160.788 79.5434C158.536 78.5723 156.578 77.2544 154.913 75.5897C153.247 73.925 151.929 71.9675 150.957 69.7169C149.986 67.4664 149.5 65.0619 149.5 62.5034C149.5 59.9446 149.986 57.5394 150.957 55.2879C151.928 53.0364 153.246 51.078 154.91 49.4127C156.575 47.7474 158.533 46.4289 160.783 45.4571C163.034 44.4857 165.438 44 167.997 44C170.555 44 172.961 44.4855 175.212 45.4566C177.464 46.4277 179.422 47.7456 181.087 49.4103C182.753 51.075 184.071 53.0325 185.043 55.2831C186.014 57.5336 186.5 59.9381 186.5 62.4966C186.5 65.0554 186.014 67.4606 185.043 69.7121C184.072 71.9636 182.754 73.922 181.09 75.5873C179.425 77.2526 177.467 78.5711 175.217 79.5429C172.966 80.5143 170.562 81 168.003 81ZM168 78.0789C172.349 78.0789 176.033 76.5697 179.051 73.5513C182.07 70.5329 183.579 66.8491 183.579 62.5C183.579 58.1509 182.07 54.4671 179.051 51.4487C176.033 48.4303 172.349 46.9211 168 46.9211C163.651 46.9211 159.967 48.4303 156.949 51.4487C153.93 54.4671 152.421 58.1509 152.421 62.5C152.421 66.8491 153.93 70.5329 156.949 73.5513C159.967 76.5697 163.651 78.0789 168 78.0789Z" fill="#F1D37D"/>
</svg>
